<svg xmlns="http://www.w3.org/2000/svg" width="1280" height="380" viewBox="0 0 1280 380" role="img" aria-labelledby="title desc">
  <title id="title">Qasim Alriyami — Cybersecurity and machine learning research</title>
  <desc id="desc">A navy academic banner with cyan typography and an abstract connected-node motif.</desc>
  <defs>
    <pattern id="grid" width="40" height="40" patternUnits="userSpaceOnUse"><path d="M40 0H0V40" fill="none" stroke="#193044" stroke-width="1"/></pattern>
    <linearGradient id="bg"><stop stop-color="#08131f"/><stop offset="1" stop-color="#112e3d"/></linearGradient>
  </defs>
  <rect width="1280" height="380" rx="16" fill="url(#bg)"/>
  <rect x="870" width="410" height="380" fill="url(#grid)" opacity=".5"/>
  <rect x="52" y="56" width="4" height="265" fill="#58e4cd"/>
  <text x="82" y="82" font-family="Consolas,monospace" font-size="17" letter-spacing="3" fill="#58e4cd">CYBERSECURITY / ACADEMIC RESEARCH</text>
  <text x="78" y="170" font-family="Segoe UI,Arial,sans-serif" font-size="66" font-weight="700" fill="#f1f7fb">Qasim Alriyami</text>
  <text x="82" y="226" font-family="Segoe UI,Arial,sans-serif" font-size="25" fill="#bad0de">Understanding behaviour. Evaluating trust.</text>
  <text x="82" y="297" font-family="Consolas,monospace" font-size="18" fill="#c2d7e1">INSIDER THREATS  /  MACHINE LEARNING  /  EXPLAINABLE AI</text>
  <g stroke="#58e4cd" stroke-width="1.5" fill="none" opacity=".65"><path d="M948 90L1100 68L1203 177L1119 286L961 260L913 174Z M948 90L1119 286 M1100 68L961 260 M913 174L1203 177"/><circle cx="1056" cy="180" r="105" stroke-dasharray="3 9"/></g>
  <g fill="#58e4cd"><circle cx="948" cy="90" r="5"/><circle cx="1100" cy="68" r="5"/><circle cx="1203" cy="177" r="5"/><circle cx="1119" cy="286" r="5"/><circle cx="961" cy="260" r="5"/><circle cx="913" cy="174" r="5"/><circle cx="1056" cy="180" r="8"/></g>
</svg>
